<svg id="Layer_1" data-name="Layer 1" xmlns="http://www.w3.org/2000/svg" viewBox="0 0 320 60.66">
    <defs>
        <style>
            .cls-1{fill:#1c00ff}.cls-2{fill:#13dd77}
        </style>
    </defs>
    <title>
        v copy
    </title>
    <path class="cls-1" d="M95.68 48.1A10.91 10.91 0 0 1 84.76 37a10.92 10.92 0 1 1 21.83 0 10.91 10.91 0 0 1-10.91 11.1zm0-18.09c-3.75 0-6.46 2.92-6.46 6.95s2.72 7 6.46 7 6.46-2.92 6.46-7S99.42 30 95.68 30zM123.89 48.1V34.38c0-3-1.68-4.69-4.6-4.69s-4.5 2.73-4.77 3.21v15.2H110V26h4.22v2.14a7.72 7.72 0 0 1 6-2.68 7.87 7.87 0 0 1 8.15 8.28V48.1zM142.18 47.94a6.43 6.43 0 0 1-6.58-6.85V30h-4v-4.13h4v-8.63h4.49v8.63h6.44V30h-6.44v10.91c0 1.86.88 2.81 2.63 2.81a4.54 4.54 0 0 0 2.16-.78l.36-.26 1.71 3.8-.3.16a9 9 0 0 1-4.47 1.3zM150.18 47.94V26h4.22v2.3a6.81 6.81 0 0 1 5.4-2.84 9 9 0 0 1 3.14.56l.34.14-1.68 4.11-.36-.19a5 5 0 0 0-2.19-.4c-2.74 0-4.16 2.74-4.37 3.2v15zM173.53 47.94c-5.77 0-10.29-4.93-10.29-11.23s4.52-11.23 10.29-11.23a8.73 8.73 0 0 1 6.7 2.81V26h4.18v21.94h-4.18v-2.81a8.73 8.73 0 0 1-6.7 2.81zm.72-18.24c-3.78 0-6.52 2.95-6.52 7s2.74 7 6.52 7a7.06 7.06 0 0 0 5.67-3.23v-7.55a7.05 7.05 0 0 0-5.68-3.22zM198.81 47.94A10.85 10.85 0 0 1 188 36.86a10.85 10.85 0 0 1 10.85-11.08 11.18 11.18 0 0 1 8.4 3.8l.21.27-3.05 2.73-.24-.3a7.23 7.23 0 0 0-5.32-2.33c-3.72 0-6.43 2.91-6.43 6.91s2.7 6.91 6.43 6.91a7.18 7.18 0 0 0 5.62-2.77l.25-.36 2.91 3-.19.25a11.25 11.25 0 0 1-8.63 4.05zM219.79 47.94a6.43 6.43 0 0 1-6.58-6.85V30h-4v-4.13h4v-8.63h4.49v8.63h6.44V30h-6.44v10.91c0 1.86.88 2.81 2.63 2.81a4.53 4.53 0 0 0 2.16-.78l.36-.26 1.71 3.8-.3.16a9 9 0 0 1-4.47 1.3zM239.12 47.94a8.61 8.61 0 0 1-6.61-2.8v2.8h-4.18v-30.7h4.49v10.7a8.79 8.79 0 0 1 6.29-2.47c5.82 0 10.38 4.93 10.38 11.23s-4.55 11.24-10.37 11.24zm-6.29-7.53a7 7 0 0 0 5.71 3.31c3.81 0 6.47-2.88 6.47-7s-2.72-7-6.47-7a7 7 0 0 0-5.72 3.28zM262.56 48.1a10.93 10.93 0 0 1-10.93-11.16 10.94 10.94 0 1 1 21.87 0 10.93 10.93 0 0 1-10.94 11.16zm0-18.12c-3.75 0-6.47 2.93-6.47 7s2.72 7 6.47 7S269 41 269 36.94 266.31 30 262.56 30zM287 48.1a10.93 10.93 0 0 1-11-11.16 10.94 10.94 0 1 1 21.87 0A10.93 10.93 0 0 1 287 48.1zm0-18.1c-3.75 0-6.47 2.93-6.47 7s2.72 7 6.47 7 6.47-2.93 6.47-7-2.75-7-6.47-7zM313.75 48.1l-8.82-9.45v9.45h-4.49V17.24h4.49v18.09l9.12-9.48H320l-10.81 10.98L320 48.1h-6.25zM72.34 48.1c-8.39 0-14.71-6.61-14.71-15.38s6.33-15.38 14.71-15.38A14.19 14.19 0 0 1 83 21.91l.21.26-2.9 2.83-.24-.31a10.29 10.29 0 0 0-7.73-3.27c-6.42 0-10.26 5.77-10.26 11.34S65.92 44.1 72.34 44.1a11.18 11.18 0 0 0 8.1-3.73l.25-.31 2.87 2.92-.21.25a15 15 0 0 1-11.01 4.87z"/>
    <path class="cls-1" d="M80.34 24.42a10.54 10.54 0 0 0-8-3.4C66 21 61.72 26.54 61.72 32.72s4.28 11.7 10.62 11.7a11.48 11.48 0 0 0 8.38-3.86L83.08 43a14.76 14.76 0 0 1-10.75 4.77C64 47.74 58 41.1 58 32.72s6-15 14.35-15a14 14 0 0 1 10.41 4.44zM13.45 48.09a4.62 4.62 0 0 1-4.61-4.61V3.91h4.41v39.57a.2.2 0 0 0 .2.21h15.36v4.41z"/>
    <path class="cls-1" d="M39.95 48.09H31v-4.41h4.54V18.1l-9.86-9.8H8.84V3.89H27.5l12.45 12.37v31.83z"/>
    <path class="cls-2" d="M31 56.77h-4.41v-34.3l-5.38-5.34h-7.97v-4.41h9.78L31 20.64v36.13zM4.41 43.47H0V12.72h8.84v4.41H4.41v26.34z"/>
    <path class="cls-2" d="M30.81 56.77H13.5A13.26 13.26 0 0 1 0 43.46h4.41a8.91 8.91 0 0 0 9.1 8.9h17.3z"/>
</svg>
